{"glyphs":{"0":{"ha":865,"x_min":120,"x_max":745,"o":"m 432 994 l 432 994 q 659 859 574 994 q 745 491 745 724 q 659 122 745 257 q 432 -14 574 -14 q 206 120 290 -14 q 120 490 122 255 l 174 490 q 188 326 174 406 q 232 180 202 246 q 312 75 263 115 q 432 36 362 36 q 552 75 503 36 q 632 180 602 115 q 677 327 663 246 q 691 491 691 408 q 677 654 691 573 q 632 800 663 734 q 552 906 602 866 q 432 946 503 946 l 432 994 z "},"1":{"ha":668,"x_min":120,"x_max":548,"o":"m 339 489 l 339 489 l 339 918 l 151 757 l 120 790 l 339 989 l 388 989 l 388 489 l 339 489 m 423 49 l 423 49 l 548 49 l 548 0 l 178 0 l 178 49 l 308 49 l 339 49 l 388 49 l 423 49 z "},"2":{"ha":795,"x_min":120,"x_max":675,"o":"m 653 49 l 653 49 l 675 49 l 675 0 l 120 0 l 120 49 l 185 49 l 653 49 m 415 949 l 415 949 q 295 917 338 948 q 231 846 251 886 q 202 778 210 806 l 154 795 q 178 853 161 819 q 224 920 194 887 q 301 975 254 952 q 415 997 347 997 q 544 967 491 997 q 626 883 598 936 q 654 763 654 830 q 559 489 654 624 l 500 489 q 566 597 543 549 q 597 685 589 646 q 605 757 605 724 q 555 894 605 841 q 415 949 505 947 z "},"3":{"ha":877,"x_min":120,"x_max":757,"o":"m 325 573 l 325 573 l 631 941 l 194 941 l 194 989 l 695 989 l 695 941 l 394 586 q 660 524 565 602 q 757 306 754 446 l 705 306 q 606 499 699 438 q 355 541 513 560 l 325 573 m 438 39 l 438 39 l 438 -10 q 437 -10 438 -10 q 435 -10 436 -10 q 313 8 367 -10 q 219 51 259 25 q 154 103 179 78 q 120 145 130 128 l 163 171 q 195 132 172 154 q 251 89 217 110 q 331 54 285 68 q 435 39 377 39 q 437 39 436 39 q 438 39 438 39 z "},"4":{"ha":887,"x_min":120,"x_max":767,"o":"m 384 296 l 384 296 l 384 248 l 120 248 l 120 296 l 546 989 l 603 989 l 181 296 l 384 296 m 635 296 l 635 296 l 767 296 l 767 248 l 635 248 l 635 0 l 586 0 l 586 113 l 586 248 l 586 296 l 586 504 l 586 595 l 635 595 l 635 296 z "},"5":{"ha":873,"x_min":120,"x_max":753,"o":"m 443 540 l 443 540 q 292 523 347 541 q 235 502 237 506 l 185 509 l 281 988 l 731 988 l 731 940 l 320 940 l 244 552 q 327 580 274 567 q 452 588 379 592 q 668 508 591 580 q 753 312 746 436 l 700 312 q 621 480 690 423 q 443 540 551 536 m 436 38 l 436 38 l 436 -11 q 436 -11 436 -11 q 435 -11 436 -11 q 276 21 342 -8 q 172 86 211 50 q 120 144 132 121 l 163 170 q 192 135 171 156 q 247 91 213 113 q 328 54 281 69 q 434 38 375 38 q 435 38 434 38 q 436 38 436 38 z "},"6":{"ha":886,"x_min":120,"x_max":766,"o":"m 443 39 l 443 39 l 443 -10 q 443 -10 443 -10 q 442 -10 443 -10 q 276 31 349 -10 q 162 146 203 73 q 120 312 120 219 q 138 414 120 354 q 191 532 156 475 q 267 647 216 573 q 373 799 318 721 q 468 933 428 877 q 507 989 507 989 l 565 989 l 295 602 q 442 634 362 634 q 608 593 535 634 q 723 479 681 551 q 766 312 764 406 l 712 312 q 635 510 710 434 q 442 586 560 586 q 249 509 325 586 q 174 312 174 432 q 249 116 174 192 q 442 39 325 39 q 443 39 443 39 q 443 39 443 39 z "},"7":{"ha":811,"x_min":120,"x_max":691,"o":"m 637 941 l 637 941 l 307 941 l 120 941 l 120 989 l 691 989 l 691 941 l 637 941 m 469 574 l 469 574 l 524 574 l 261 0 l 207 0 l 469 574 z "},"8":{"ha":870,"x_min":120,"x_max":750,"o":"m 435 41 l 435 41 l 435 -8 q 202 78 285 -5 q 120 279 120 160 q 141 381 120 328 q 206 475 161 433 q 322 539 250 517 q 211 626 253 568 q 169 753 169 683 q 199 869 169 812 q 288 961 229 925 q 435 998 347 998 q 582 961 524 998 q 670 869 641 925 q 699 753 699 812 q 658 626 699 683 q 548 539 618 568 q 664 475 619 517 q 729 381 709 433 q 750 279 750 328 q 750 278 750 278 q 750 277 750 277 l 701 277 q 701 278 701 277 q 701 279 701 278 q 627 447 701 382 q 435 513 552 513 q 243 447 316 513 q 169 279 169 382 q 243 108 169 174 q 435 41 316 43 m 219 753 l 219 753 q 244 659 219 703 q 317 588 269 615 q 435 561 365 561 q 552 588 504 561 q 625 659 600 615 q 650 753 650 703 q 624 854 650 809 q 550 924 598 898 q 435 950 502 950 q 319 924 368 950 q 245 854 271 898 q 219 753 219 809 z "},"9":{"ha":886,"x_min":120,"x_max":766,"o":"m 443 949 l 443 949 l 443 999 q 443 999 443 999 q 443 999 443 999 q 609 957 537 999 q 724 843 682 915 q 766 677 766 770 q 748 574 766 634 q 695 456 730 514 q 619 341 670 415 q 513 189 568 268 q 418 56 458 111 q 379 0 379 0 l 320 0 l 591 386 q 443 355 524 355 q 278 396 351 355 q 163 510 204 438 q 120 676 121 582 l 174 676 q 251 479 176 554 q 443 403 326 403 q 637 480 561 403 q 712 677 712 557 q 637 873 712 797 q 443 949 561 949 q 443 949 443 949 q 443 949 443 949 z "},"\u0000":{"ha":1057,"x_min":0,"x_max":0,"o":""},"\u001d":{"ha":1057,"x_min":0,"x_max":0,"o":""}," ":{"ha":450,"x_min":0,"x_max":0,"o":""}," ":{"ha":450,"x_min":0,"x_max":0,"o":""},"!":{"ha":319,"x_min":120,"x_max":199,"o":"m 199 40 l 199 40 q 187 67 199 56 q 160 79 176 79 q 132 67 143 79 q 120 40 120 56 q 132 12 120 23 q 160 0 143 0 q 187 12 176 0 q 199 40 199 23 m 139 246 l 139 246 l 179 246 l 184 989 l 136 989 l 139 246 z "},"\"":{"ha":527,"x_min":120,"x_max":407,"o":"m 407 983 l 407 983 l 345 983 l 280 746 l 308 746 l 407 983 m 247 983 l 247 983 l 185 983 l 120 746 l 148 746 l 247 983 m 247 983 l 247 983 l 185 983 l 120 746 l 148 746 l 247 983 m 247 983 l 247 983 l 185 983 l 120 746 l 148 746 l 247 983 z "},"#":{"ha":1205,"x_min":120,"x_max":1085,"o":"m 833 486 l 833 486 l 802 342 l 1013 342 l 1003 294 l 793 294 l 730 0 l 681 0 l 742 294 l 391 294 l 329 0 l 280 0 l 340 294 l 120 294 l 130 342 l 285 342 l 352 342 l 401 342 l 602 342 l 751 342 l 782 486 l 833 486 m 873 678 l 873 678 l 1085 678 l 1074 630 l 982 630 l 863 630 l 812 630 l 554 630 l 462 630 l 432 486 l 382 486 l 411 630 l 191 630 l 202 678 l 423 678 l 487 989 l 537 989 l 472 678 l 823 678 l 889 989 l 938 989 l 873 678 z "},"$":{"ha":945,"x_min":120,"x_max":825,"o":"m 476 523 l 476 523 q 651 470 583 498 q 758 410 720 442 q 810 340 795 377 q 825 260 825 303 q 809 175 825 221 q 756 87 794 128 q 652 19 718 45 q 486 -10 585 -8 l 486 -143 l 436 -143 l 436 -40 l 436 -8 l 436 41 q 478 40 456 40 q 588 52 534 40 q 684 91 642 65 q 752 160 727 118 q 777 260 777 202 q 751 346 777 311 q 681 406 725 382 q 582 446 637 430 q 465 475 526 463 q 207 570 294 511 q 120 727 120 629 q 162 868 120 808 q 274 962 203 928 q 436 997 345 996 l 436 1133 l 486 1133 l 486 1066 l 486 994 l 486 946 q 442 948 465 948 q 245 887 321 948 q 169 727 169 826 q 195 645 169 678 q 264 589 220 611 q 362 551 307 567 q 476 523 417 535 z "},"%":{"ha":1161,"x_min":120,"x_max":1041,"o":"m 920 990 l 920 990 l 862 990 l 244 0 l 303 0 l 920 990 m 322 998 l 322 998 q 466 940 408 998 q 524 795 524 882 q 466 652 524 710 q 322 594 408 594 q 178 652 236 594 q 120 795 120 710 l 165 795 q 210 684 165 729 q 322 639 255 639 q 435 684 389 639 q 480 795 480 729 q 435 908 480 863 q 322 952 389 952 l 322 998 m 839 36 l 839 36 l 839 -10 q 838 -10 839 -10 q 838 -10 838 -10 q 694 48 753 -10 q 635 192 635 106 q 694 336 635 278 q 838 395 753 395 q 981 338 924 395 q 1041 193 1039 281 l 996 193 q 950 306 994 261 q 838 351 905 351 q 726 305 771 351 q 681 192 681 259 q 726 81 681 126 q 838 36 771 36 q 838 36 838 36 q 839 36 839 36 z "},"&":{"ha":1113,"x_min":120,"x_max":993,"o":"m 828 213 l 828 213 l 993 63 l 960 27 l 801 172 q 666 41 748 94 q 467 -21 583 -12 l 467 27 q 644 85 570 36 q 764 206 717 134 q 550 414 665 298 q 378 600 434 530 q 234 448 294 535 q 171 260 173 360 l 121 260 q 177 452 120 355 q 350 640 235 548 q 307 904 255 782 q 379 986 332 955 q 478 1017 427 1017 q 568 998 531 1017 q 628 949 605 980 q 662 883 651 919 q 673 810 673 847 l 624 809 q 609 884 624 848 q 563 944 595 920 q 478 968 531 968 q 406 945 441 968 q 351 885 371 922 q 425 622 302 768 q 791 248 600 421 q 839 351 820 300 q 869 446 858 402 l 912 435 q 881 328 901 386 q 828 213 861 271 z "},"'":{"ha":367,"x_min":120,"x_max":247,"o":"m 247 983 l 247 983 l 185 983 l 120 746 l 148 746 l 247 983 z "},"(":{"ha":511,"x_min":120,"x_max":391,"o":"m 364 -129 l 364 -129 q 196 262 235 36 q 206 713 156 487 q 391 1108 255 939 l 353 1138 q 130 500 148 884 q 326 -160 120 103 l 364 -129 z "},")":{"ha":512,"x_min":120,"x_max":392,"o":"m 147 -129 l 185 -160 q 382 500 392 103 q 159 1138 363 884 l 120 1108 q 306 713 257 939 q 316 262 355 487 q 147 -129 277 36 l 147 -129 z "},"*":{"ha":629,"x_min":120,"x_max":508,"o":"m 342 904 l 342 904 l 508 989 l 484 1031 l 328 928 l 339 1114 l 290 1114 l 301 928 l 144 1031 l 120 989 l 287 904 l 120 821 l 144 777 l 301 880 l 290 694 l 339 694 l 328 880 l 484 777 l 508 821 l 342 904 z "},"+":{"ha":788,"x_min":120,"x_max":668,"o":"m 668 468 l 668 468 l 668 517 l 418 517 l 418 768 l 370 768 l 370 517 l 120 517 l 120 468 l 370 468 l 370 220 l 418 220 l 418 468 l 668 468 z "},",":{"ha":367,"x_min":120,"x_max":247,"o":"m 247 80 l 247 80 l 185 80 l 120 -157 l 148 -157 l 247 80 z "},"-":{"ha":706,"x_min":120,"x_max":586,"o":"m 586 518 l 586 518 l 120 518 l 120 469 l 586 469 l 586 518 z "},"­":{"ha":706,"x_min":120,"x_max":586,"o":"m 586 518 l 586 518 l 120 518 l 120 469 l 586 469 l 586 518 z "},".":{"ha":318,"x_min":120,"x_max":198,"o":"m 198 40 l 198 40 q 186 67 198 56 q 159 79 175 79 q 131 67 142 79 q 120 40 120 56 q 131 12 120 23 q 159 0 142 0 q 186 12 175 0 q 198 40 198 23 z "},"/":{"ha":716,"x_min":120,"x_max":596,"o":"m 596 1132 l 596 1132 l 544 1132 l 120 -146 l 172 -146 l 596 1132 z "},":":{"ha":319,"x_min":120,"x_max":199,"o":"m 120 635 l 120 635 q 132 609 120 620 q 160 598 143 598 q 187 609 176 598 q 199 635 199 620 q 187 664 199 653 q 160 675 176 675 q 132 664 143 675 q 120 635 120 653 m 199 40 l 199 40 q 187 67 199 56 q 160 79 176 79 q 132 67 143 79 q 120 40 120 56 q 132 12 120 23 q 160 0 143 0 q 187 12 176 0 q 199 40 199 23 z "},";":{"ha":367,"x_min":120,"x_max":247,"o":"m 166 635 l 166 635 q 178 609 166 620 q 206 598 189 598 q 233 609 222 598 q 245 635 245 620 q 233 664 245 653 q 206 675 222 675 q 178 664 189 675 q 166 635 166 653 m 247 80 l 247 80 l 185 80 l 120 -157 l 148 -157 l 247 80 z "},"<":{"ha":723,"x_min":120,"x_max":603,"o":"m 603 701 l 603 701 l 603 756 l 120 521 l 120 465 l 603 230 l 603 285 l 175 493 l 603 701 z "},"=":{"ha":788,"x_min":120,"x_max":668,"o":"m 668 632 l 668 632 l 120 632 l 120 583 l 668 583 l 668 632 m 120 401 l 120 401 l 120 352 l 668 352 l 668 401 l 120 401 z "},">":{"ha":723,"x_min":120,"x_max":603,"o":"m 120 701 l 548 493 l 120 285 l 120 230 l 603 465 l 603 521 l 120 756 l 120 701 l 120 701 z "},"?":{"ha":747,"x_min":120,"x_max":627,"o":"m 374 997 l 374 997 l 374 948 q 242 896 297 946 q 169 745 187 845 l 120 756 q 215 938 143 880 q 374 997 288 996 m 578 739 l 578 739 l 627 739 q 626 723 627 731 q 572 572 613 637 q 484 454 531 507 q 409 353 440 403 q 376 246 378 304 l 327 246 q 364 374 329 317 q 447 484 399 432 q 528 596 491 537 q 578 729 565 655 q 578 739 578 734 m 352 79 l 352 79 q 380 67 368 79 q 391 40 391 56 q 380 12 391 23 q 352 0 368 0 q 325 12 336 0 q 314 40 314 23 q 325 67 314 56 q 352 79 336 79 z "},"@":{"ha":1408,"x_min":120,"x_max":1288,"o":"m 1284 456 l 1284 456 q 1281 324 1288 392 q 1252 197 1274 255 q 1192 101 1230 138 q 1096 64 1154 64 q 1015 89 1046 64 q 967 155 984 113 q 943 249 950 196 q 843 137 908 179 q 692 95 779 95 q 537 138 603 95 q 435 253 471 181 q 398 414 399 325 l 446 414 q 476 275 446 337 q 561 177 506 213 q 692 140 616 140 q 821 177 767 140 q 904 276 876 213 q 933 414 933 338 q 904 552 933 490 q 821 650 876 613 q 692 687 767 687 q 690 687 691 687 q 690 687 690 687 l 690 731 q 690 731 690 731 q 692 731 691 731 q 837 693 774 731 q 937 589 900 655 l 937 703 l 981 703 l 981 413 q 985 300 981 354 q 1000 202 989 245 q 1035 134 1012 159 q 1096 109 1057 109 q 1181 157 1147 109 q 1230 282 1215 204 q 1239 452 1245 360 q 1145 728 1223 620 q 953 887 1067 836 q 718 939 839 939 q 359 820 502 939 q 186 492 217 701 q 212 217 166 343 q 362 9 257 91 q 634 -95 480 -80 q 944 -45 787 -109 l 961 -87 q 761 -137 872 -127 q 539 -122 651 -148 q 334 -27 427 -96 q 170 199 220 63 q 141 498 120 336 q 329 855 175 727 q 718 983 483 983 q 921 952 832 983 q 1076 869 1010 922 q 1186 748 1142 816 q 1254 606 1230 681 q 1284 456 1278 531 z "},"A":{"ha":1049,"x_min":120,"x_max":928,"o":"m 928 0 l 928 0 l 547 989 l 502 989 l 120 0 l 172 0 l 524 911 l 876 0 l 928 0 z "},"B":{"ha":915,"x_min":120,"x_max":795,"o":"m 595 532 l 595 532 q 698 485 653 519 q 769 399 743 452 q 795 274 795 347 q 754 121 795 182 q 646 30 714 60 q 498 0 578 0 l 120 0 l 120 49 l 169 49 l 255 49 l 498 49 q 618 73 562 49 q 709 147 675 97 q 743 274 743 196 q 710 403 743 352 q 620 478 676 454 q 498 503 564 503 l 255 503 l 169 503 l 120 503 l 120 551 l 473 551 q 583 573 535 551 q 660 639 632 596 q 688 746 688 682 q 630 891 688 841 q 473 941 571 941 l 120 941 l 120 989 l 473 989 q 612 959 552 989 q 707 875 672 929 q 742 746 742 820 q 702 613 742 668 q 595 532 662 559 z "},"C":{"ha":955,"x_min":120,"x_max":835,"o":"m 640 989 l 640 989 q 434 957 528 989 q 269 862 339 924 q 159 706 198 799 q 120 495 120 614 q 188 225 120 336 q 373 57 256 115 q 640 0 491 0 q 680 0 650 0 q 746 0 711 0 q 807 0 782 0 q 835 0 833 0 l 835 49 l 786 49 q 772 49 777 49 q 765 49 767 49 q 762 49 763 49 q 758 49 760 49 q 749 49 755 49 q 732 49 743 49 q 674 49 699 49 q 640 49 649 49 q 459 79 543 49 q 312 165 375 108 q 213 305 249 222 q 178 495 178 388 q 238 738 178 638 q 403 889 299 837 q 640 941 508 941 q 685 941 654 941 q 751 941 716 941 q 809 941 785 941 q 835 941 833 941 l 835 989 q 809 989 835 989 q 747 989 784 989 q 678 989 710 989 q 640 989 651 989 z "},"D":{"ha":1035,"x_min":120,"x_max":915,"o":"m 858 495 l 858 495 l 915 495 q 915 495 915 495 q 847 225 915 336 q 662 57 780 115 q 395 0 545 0 q 346 0 386 0 q 257 0 306 0 q 168 0 208 0 l 168 0 l 120 0 l 120 0 l 120 0 l 120 49 l 120 49 l 120 989 l 168 989 l 168 49 l 169 49 q 257 49 207 49 q 303 49 280 49 q 361 49 336 49 q 395 49 386 49 q 577 79 493 49 q 724 165 661 108 q 822 305 786 222 q 858 495 858 388 q 858 495 858 495 z "},"E":{"ha":889,"x_min":120,"x_max":769,"o":"m 769 939 l 769 939 l 769 989 l 120 989 l 120 939 l 769 939 m 769 470 l 769 470 l 769 519 l 120 519 l 120 470 l 769 470 m 769 0 l 769 0 l 769 49 l 120 49 l 120 0 l 769 0 z "},"F":{"ha":889,"x_min":120,"x_max":769,"o":"m 769 989 l 769 989 l 120 989 l 120 939 l 769 939 l 769 989 m 769 519 l 769 519 l 120 519 l 120 0 l 169 0 l 169 471 l 769 471 l 769 519 z "},"G":{"ha":1126,"x_min":120,"x_max":1006,"o":"m 583 996 l 583 996 q 817 969 718 1004 q 972 887 916 935 l 946 850 q 810 923 901 891 q 583 946 719 955 q 285 806 395 928 q 172 491 176 683 q 285 178 176 301 q 583 38 395 56 q 643 36 614 35 l 643 -14 q 583 -12 614 -14 q 341 67 445 1 q 178 243 237 134 q 120 491 120 353 q 178 740 120 631 q 341 917 237 850 q 583 996 445 983 m 957 525 l 957 525 l 1006 525 l 1006 338 l 1006 132 l 1006 0 l 957 0 l 957 88 l 957 146 l 957 338 l 957 447 l 957 525 z "},"H":{"ha":990,"x_min":120,"x_max":870,"o":"m 169 519 l 169 519 l 870 519 l 870 0 l 821 0 l 821 469 l 169 469 l 169 0 l 120 0 l 120 469 l 120 582 l 120 989 l 169 989 l 169 582 l 169 519 z "},"I":{"ha":288,"x_min":120,"x_max":168,"o":"m 120 989 l 120 989 l 120 0 l 168 0 l 168 989 l 120 989 z "},"J":{"ha":473,"x_min":120,"x_max":353,"o":"m 303 989 l 303 989 l 353 989 q 353 898 353 989 q 353 680 353 808 q 353 437 353 552 q 353 262 353 321 q 294 66 353 139 q 120 -10 235 -8 l 120 38 q 258 104 212 42 q 303 264 303 166 q 303 417 303 303 q 303 661 303 530 q 303 886 303 791 q 303 989 303 980 z "},"K":{"ha":771,"x_min":120,"x_max":651,"o":"m 651 0 l 651 0 l 581 0 l 169 442 l 169 0 l 120 0 l 120 495 l 121 495 l 120 495 l 543 989 l 611 989 l 189 496 l 651 0 z "},"L":{"ha":834,"x_min":120,"x_max":714,"o":"m 169 49 l 169 49 l 714 49 l 714 0 l 169 0 l 120 0 l 120 49 l 120 989 l 169 989 l 169 49 z "},"M":{"ha":1209,"x_min":120,"x_max":1089,"o":"m 1078 999 l 1078 999 l 1089 999 l 1089 928 l 611 261 l 600 261 l 169 859 l 169 0 l 120 0 l 120 999 l 133 999 l 606 340 l 1078 999 z "},"N":{"ha":993,"x_min":120,"x_max":873,"o":"m 131 999 l 131 999 l 873 56 l 873 -10 l 861 -10 l 169 869 l 169 0 l 120 0 l 120 999 l 131 999 z "},"O":{"ha":1199,"x_min":120,"x_max":1079,"o":"m 600 996 l 600 996 q 847 927 739 994 q 1017 746 955 860 q 1079 492 1079 631 q 1017 239 1079 353 q 846 57 955 125 q 599 -11 738 -11 q 353 57 461 -11 q 183 239 245 125 q 120 492 120 353 q 120 493 120 492 q 120 493 120 493 l 174 493 q 174 493 174 493 q 174 492 174 492 q 228 264 174 367 q 379 99 283 161 q 599 37 475 37 q 820 99 724 37 q 971 264 917 161 q 1026 492 1026 367 q 971 721 1026 618 q 821 885 917 824 q 600 947 725 945 l 600 996 z "},"P":{"ha":917,"x_min":120,"x_max":797,"o":"m 797 687 l 797 687 q 753 845 797 777 q 637 951 710 913 q 473 989 563 989 l 120 989 l 120 941 l 473 941 q 611 910 550 941 q 708 823 672 880 q 743 687 743 766 q 707 551 743 608 q 609 464 670 495 q 473 434 548 434 l 120 434 l 120 0 l 168 0 l 168 384 l 473 384 q 639 422 566 384 q 754 528 712 460 q 797 687 797 596 z "},"Q":{"ha":1199,"x_min":120,"x_max":1079,"o":"m 600 997 l 600 997 q 847 929 739 997 q 1017 747 955 861 q 1079 494 1079 633 q 1021 248 1079 360 q 861 68 963 136 q 624 -9 758 -1 l 624 -212 l 576 -212 l 576 -45 l 576 -9 l 576 40 q 600 39 588 39 q 822 101 725 39 q 973 266 918 163 q 1027 494 1027 369 q 973 723 1027 620 q 822 888 918 826 q 600 949 725 949 q 379 888 476 949 q 228 723 283 826 q 174 494 174 620 q 174 494 174 494 q 174 493 174 494 l 120 493 q 120 494 120 494 q 120 494 120 494 q 183 747 120 633 q 353 929 245 861 q 600 997 462 997 z "},"R":{"ha":937,"x_min":120,"x_max":817,"o":"m 817 0 l 817 0 l 760 0 l 515 436 q 632 477 580 445 q 714 562 683 508 q 745 687 745 616 q 709 822 745 766 q 612 909 673 879 q 473 939 550 939 l 120 939 l 120 989 l 473 989 q 637 951 563 989 q 753 845 710 913 q 797 687 797 777 q 740 506 797 581 q 589 403 683 432 l 817 0 z "},"S":{"ha":945,"x_min":120,"x_max":825,"o":"m 476 526 l 476 526 q 651 473 583 502 q 758 413 720 445 q 810 344 795 381 q 825 264 825 307 q 809 177 825 224 q 753 88 793 130 q 647 19 714 46 q 478 -8 580 -8 q 473 -8 475 -8 l 473 40 l 473 41 q 478 41 476 41 q 587 54 534 41 q 683 94 641 67 q 750 164 725 121 q 775 264 775 206 q 750 350 775 315 q 681 409 725 385 q 581 448 637 432 q 465 478 526 465 q 207 572 293 513 q 120 731 120 632 q 162 873 120 812 q 278 968 204 934 q 442 1002 351 1002 q 473 1000 458 1002 l 473 952 q 442 952 458 952 q 245 891 321 952 q 168 731 168 830 q 194 649 168 682 q 263 593 220 616 q 361 555 306 571 q 476 526 417 539 z "},"T":{"ha":955,"x_min":120,"x_max":835,"o":"m 835 989 l 835 989 l 120 989 l 120 939 l 835 939 l 835 989 m 454 633 l 454 633 l 454 0 l 502 0 l 502 633 l 454 633 z "},"U":{"ha":965,"x_min":120,"x_max":845,"o":"m 795 989 l 795 989 l 845 989 l 845 452 l 845 400 q 750 102 845 210 q 482 -10 656 -7 q 214 102 309 -7 q 120 400 120 210 l 120 615 l 120 708 l 120 839 l 120 893 l 120 989 l 169 989 l 169 893 l 169 839 l 169 708 l 169 615 l 169 400 q 252 135 169 230 q 482 38 335 40 q 713 135 630 40 q 795 400 795 230 l 795 452 l 795 989 z "},"V":{"ha":1040,"x_min":120,"x_max":920,"o":"m 172 989 l 172 989 l 120 989 l 309 495 l 361 495 l 172 989 m 920 989 l 920 989 l 867 989 l 493 11 l 498 0 l 543 0 l 920 989 z "},"W":{"ha":1181,"x_min":120,"x_max":1061,"o":"m 1009 989 l 1009 989 l 1061 989 l 662 0 l 619 0 l 394 524 l 169 0 l 126 0 l 120 14 l 367 586 l 394 648 l 542 989 l 595 989 l 421 586 l 642 79 l 1009 989 z "},"X":{"ha":1018,"x_min":120,"x_max":898,"o":"m 307 265 l 307 265 l 120 0 l 181 0 l 367 265 l 307 265 m 307 724 l 307 724 l 120 989 l 181 989 l 367 724 l 307 724 m 898 0 l 898 0 l 539 508 l 880 989 l 819 989 l 479 508 l 838 0 l 898 0 z "},"Y":{"ha":658,"x_min":120,"x_max":538,"o":"m 482 989 l 482 989 l 538 989 l 168 328 l 168 0 l 120 0 l 120 343 l 482 989 z "},"Z":{"ha":993,"x_min":120,"x_max":873,"o":"m 873 49 l 873 49 l 183 49 l 869 989 l 807 989 l 120 49 l 120 0 l 873 0 l 873 49 z "},"[":{"ha":514,"x_min":120,"x_max":394,"o":"m 169 1089 l 169 1089 l 394 1089 l 394 1138 l 120 1138 l 120 -140 l 394 -140 l 394 -91 l 169 -91 l 169 1089 z "},"\\":{"ha":716,"x_min":120,"x_max":596,"o":"m 120 1132 l 544 -146 l 596 -146 l 172 1132 l 120 1132 l 120 1132 z "},"]":{"ha":514,"x_min":120,"x_max":394,"o":"m 344 1089 l 344 -91 l 120 -91 l 120 -140 l 394 -140 l 394 1138 l 120 1138 l 120 1089 l 344 1089 l 344 1089 z "},"^":{"ha":611,"x_min":120,"x_max":491,"o":"m 436 819 l 436 819 l 491 819 l 333 1061 l 277 1061 l 120 819 l 175 819 l 305 1006 l 436 819 z "},"_":{"ha":861,"x_min":120,"x_max":741,"o":"m 741 47 l 741 47 l 120 47 l 120 -2 l 741 -2 l 741 47 z "},"`":{"ha":367,"x_min":120,"x_max":247,"o":"m 120 983 l 219 746 l 247 746 l 183 983 l 120 983 l 120 983 z "},"a":{"ha":777,"x_min":120,"x_max":657,"o":"m 419 691 l 419 691 q 499 680 457 691 q 576 643 540 670 q 634 570 611 616 q 657 454 657 524 q 657 255 657 359 q 657 79 657 151 q 657 0 657 7 l 609 0 l 609 140 l 609 284 q 609 305 609 294 q 609 337 609 321 q 609 363 609 353 q 609 375 609 374 q 529 355 572 366 q 383 323 467 340 q 220 260 267 299 q 172 159 172 222 q 195 91 172 117 q 255 51 218 65 q 338 38 292 38 q 356 39 347 38 l 356 -9 q 331 -10 344 -10 q 259 -1 296 -10 q 190 26 222 7 q 140 77 159 45 q 120 159 120 110 q 155 266 120 225 q 247 331 191 307 q 371 371 304 355 q 426 382 399 377 q 515 402 474 391 q 582 430 557 413 q 607 473 607 446 q 588 558 607 519 q 528 620 570 596 q 419 643 487 643 q 312 622 356 643 q 241 567 268 602 q 203 488 214 532 l 155 499 q 180 564 163 530 q 228 627 198 598 q 305 673 258 655 q 419 691 352 691 z "},"b":{"ha":877,"x_min":120,"x_max":757,"o":"m 439 691 l 439 691 q 607 644 536 691 q 718 517 679 596 q 757 341 757 438 q 718 165 757 244 q 607 38 679 85 q 439 -10 536 -10 q 439 -10 439 -10 q 438 -10 439 -10 l 438 38 q 439 38 439 38 q 439 38 439 38 q 582 79 523 38 q 673 189 642 120 q 705 341 705 257 q 673 493 705 424 q 582 602 642 561 q 439 643 523 643 q 297 602 356 643 q 206 493 237 561 q 174 341 174 424 l 169 157 l 169 0 l 120 0 l 120 990 l 169 990 l 169 524 q 276 646 207 600 q 439 691 344 691 z "},"c":{"ha":845,"x_min":120,"x_max":725,"o":"m 678 173 l 678 173 q 584 74 643 110 q 447 37 525 37 q 302 78 363 37 q 206 187 240 119 q 172 340 172 256 q 206 491 172 423 q 302 601 240 560 q 447 642 363 642 q 584 605 525 642 q 678 508 643 569 l 725 528 q 610 646 682 602 q 447 690 539 690 q 276 642 350 690 q 161 516 202 595 q 120 340 120 436 q 161 163 120 243 q 276 36 202 84 q 447 -11 350 -11 q 610 33 539 -11 q 725 150 682 76 l 678 173 z "},"d":{"ha":877,"x_min":120,"x_max":757,"o":"m 438 691 q 602 646 533 691 q 707 524 670 600 l 707 990 l 757 990 l 757 0 l 707 0 l 707 157 l 703 341 q 672 493 703 424 q 581 602 640 561 q 438 643 522 643 q 295 602 355 643 q 204 493 235 561 q 172 341 172 424 q 204 189 172 257 q 295 79 235 120 q 438 38 355 38 q 438 38 438 38 q 438 38 438 38 l 438 -10 q 438 -10 438 -10 q 438 -10 438 -10 q 270 38 341 -10 q 159 165 198 85 q 120 341 120 244 q 159 517 120 438 q 270 644 198 596 q 438 691 341 691 l 438 691 z "},"e":{"ha":869,"x_min":120,"x_max":749,"o":"m 448 38 l 448 38 q 585 74 526 38 q 679 174 644 111 l 725 151 q 611 33 683 77 q 448 -10 540 -10 q 434 -10 441 -10 q 434 -10 434 -10 l 434 38 q 448 38 441 38 m 448 690 l 448 690 q 612 643 545 690 q 714 516 679 596 q 749 340 749 437 q 747 303 749 321 l 434 303 l 175 303 l 121 303 q 120 340 120 321 q 162 516 120 437 q 277 643 203 596 q 448 690 351 690 m 174 353 l 174 353 l 695 353 q 665 500 693 434 q 583 604 637 565 q 448 642 529 642 q 306 604 366 642 q 211 500 246 565 q 174 353 177 434 z "},"f":{"ha":619,"x_min":120,"x_max":499,"o":"m 222 304 l 222 304 l 271 304 l 271 0 l 222 0 l 222 304 m 371 948 l 371 948 q 312 929 334 948 q 281 880 290 911 q 271 810 271 848 l 271 681 l 436 681 l 436 631 l 321 631 l 271 631 l 222 631 l 189 631 l 120 631 l 120 681 l 222 681 l 222 801 q 236 905 222 861 q 283 973 250 949 q 371 997 316 997 q 440 983 406 997 q 499 952 473 970 l 472 911 q 427 937 454 926 q 371 948 400 948 z "},"g":{"ha":901,"x_min":120,"x_max":781,"o":"m 781 675 l 781 675 q 718 663 746 675 q 669 633 690 651 q 635 598 648 616 q 671 534 658 570 q 685 452 685 498 q 647 321 685 374 q 550 241 610 268 q 423 214 489 214 q 355 222 388 214 q 318 173 327 197 q 314 134 309 148 q 350 105 319 113 q 451 95 380 96 q 609 79 542 95 q 712 26 676 62 q 749 -75 749 -11 q 665 -224 749 -165 q 424 -279 581 -283 q 223 -232 296 -270 q 120 -163 150 -194 l 151 -128 q 259 -195 192 -165 q 424 -231 326 -224 q 559 -218 498 -235 q 658 -166 620 -202 q 695 -80 695 -131 q 662 -2 695 -28 q 573 35 628 25 q 449 46 517 45 q 320 63 369 48 q 263 124 272 79 q 271 179 259 149 q 309 235 283 210 q 233 281 267 252 q 179 354 199 311 q 160 452 160 397 q 160 452 160 452 q 160 452 160 452 l 213 452 q 213 452 213 452 q 213 452 213 452 q 243 346 213 387 q 320 284 272 304 q 423 264 368 264 q 525 284 477 264 q 602 346 572 304 q 631 452 631 387 q 602 559 631 517 q 525 621 572 600 q 423 641 477 641 l 423 690 q 521 675 473 690 q 606 629 568 659 q 683 703 638 675 q 781 731 728 731 l 781 675 z "},"h":{"ha":778,"x_min":120,"x_max":658,"o":"m 389 691 l 389 691 l 389 643 q 277 607 326 641 q 198 512 227 573 q 169 370 169 452 l 169 0 l 120 0 l 120 989 l 169 989 l 169 543 q 256 648 200 607 q 389 691 311 688 m 608 410 l 608 410 l 658 410 q 658 387 658 399 q 658 213 658 302 q 658 65 658 125 q 658 0 658 5 l 609 0 l 609 387 q 608 410 609 399 z "},"i":{"ha":318,"x_min":120,"x_max":198,"o":"m 198 850 l 198 850 q 186 878 198 867 q 159 890 175 890 q 131 878 142 890 q 120 850 120 867 q 131 823 120 834 q 159 811 142 811 q 186 823 175 811 q 198 850 198 834 m 134 681 l 134 681 l 134 0 l 184 0 l 184 681 l 134 681 z "},"j":{"ha":408,"x_min":120,"x_max":288,"o":"m 248 891 l 248 891 q 276 879 264 891 q 288 851 288 867 q 276 823 288 835 q 248 812 264 812 q 221 823 233 812 q 209 851 209 835 q 221 879 209 867 q 248 891 233 891 m 223 -125 l 223 -125 l 223 681 l 271 681 l 271 -125 q 256 -219 271 -176 q 207 -289 240 -262 q 120 -317 173 -316 l 120 -268 q 197 -228 171 -266 q 223 -125 223 -191 z "},"k":{"ha":719,"x_min":120,"x_max":599,"o":"m 599 0 l 599 0 l 535 0 l 242 350 l 493 681 l 554 681 l 305 352 l 599 0 m 120 989 l 120 989 l 169 989 l 169 0 l 120 0 l 120 989 z "},"l":{"ha":290,"x_min":120,"x_max":169,"o":"m 120 989 l 120 989 l 169 989 l 169 0 l 120 0 l 120 989 z "},"m":{"ha":1209,"x_min":120,"x_max":1089,"o":"m 827 690 l 827 690 l 827 642 q 681 564 734 637 q 629 370 629 490 l 629 0 l 579 0 l 579 387 q 558 519 579 461 q 491 610 536 576 q 377 643 447 643 q 225 568 281 643 q 169 370 169 493 l 169 0 l 120 0 l 120 681 l 169 681 l 169 548 q 253 651 199 611 q 384 691 307 691 q 532 647 476 691 q 611 524 587 603 q 693 639 639 594 q 827 690 747 684 m 1040 397 l 1040 397 l 1089 397 q 1089 395 1089 396 q 1089 387 1089 391 q 1089 213 1089 302 q 1089 65 1089 125 q 1089 0 1089 5 l 1040 0 l 1040 387 q 1040 397 1040 393 z "},"n":{"ha":777,"x_min":120,"x_max":657,"o":"m 388 691 l 388 691 l 388 643 q 230 566 292 640 q 168 370 168 492 l 168 0 l 120 0 l 120 681 l 168 681 l 168 543 q 255 648 200 607 q 388 691 311 688 m 607 397 l 607 397 l 657 397 q 657 395 657 396 q 657 387 657 391 q 657 213 657 302 q 657 65 657 125 q 657 0 657 5 l 607 0 l 607 387 q 607 397 607 393 z "},"o":{"ha":894,"x_min":120,"x_max":774,"o":"m 448 690 l 448 690 q 618 642 545 690 q 733 516 692 595 q 774 340 774 436 q 733 163 774 243 q 618 36 692 84 q 448 -11 545 -11 q 277 36 351 -11 q 162 163 203 84 q 120 340 120 243 l 174 340 q 208 187 174 256 q 303 78 242 119 q 448 37 364 37 q 593 78 531 37 q 687 187 654 119 q 721 340 721 256 q 687 491 721 423 q 593 601 654 560 q 448 642 531 642 q 447 642 447 642 q 447 642 447 642 l 447 690 q 447 690 447 690 q 448 690 447 690 z "},"p":{"ha":877,"x_min":120,"x_max":757,"o":"m 439 -12 l 439 -12 q 607 35 536 -12 q 718 162 679 82 q 757 338 757 242 q 718 515 757 435 q 607 642 679 594 q 439 689 536 689 q 439 689 439 689 q 438 688 439 688 l 438 641 q 439 641 439 641 q 439 641 439 641 q 582 600 523 641 q 673 490 642 559 q 705 338 705 421 q 673 186 705 255 q 582 77 642 117 q 439 36 523 36 q 297 77 356 36 q 206 186 237 117 q 174 338 174 255 l 169 522 l 169 679 l 120 679 l 120 -310 l 169 -310 l 169 154 q 276 33 207 78 q 439 -12 344 -12 z "},"q":{"ha":877,"x_min":120,"x_max":757,"o":"m 438 -12 q 602 33 533 -12 q 707 154 670 78 l 707 -310 l 757 -310 l 757 679 l 707 679 l 707 522 l 703 338 q 672 186 703 255 q 581 77 640 117 q 438 36 522 36 q 295 77 355 36 q 204 186 235 117 q 172 338 172 255 q 204 490 172 421 q 295 600 235 559 q 438 641 355 641 q 438 641 438 641 q 438 641 438 641 l 438 688 q 438 689 438 688 q 438 689 438 689 q 270 642 341 689 q 159 515 198 594 q 120 338 120 435 q 159 162 120 242 q 270 35 198 82 q 438 -12 341 -12 l 438 -12 z "},"r":{"ha":551,"x_min":120,"x_max":431,"o":"m 431 691 l 431 691 q 416 692 423 691 q 401 692 408 692 q 302 672 347 692 q 224 617 258 652 q 169 538 191 583 l 169 681 l 120 681 l 120 0 l 169 0 l 169 370 q 201 514 169 453 q 284 609 232 575 q 401 643 337 643 q 423 642 412 643 l 431 691 z "},"s":{"ha":721,"x_min":120,"x_max":601,"o":"m 364 364 l 364 364 q 448 339 406 353 q 524 305 489 325 q 580 254 559 284 q 601 178 601 223 q 569 72 601 114 q 484 8 537 30 q 372 -13 432 -13 q 353 -12 362 -13 q 353 -12 353 -12 l 353 36 q 372 35 362 35 q 459 50 418 35 q 526 97 500 65 q 552 178 552 128 q 527 241 552 216 q 457 283 502 266 q 352 316 412 301 q 203 373 267 336 q 126 489 139 411 q 144 588 120 542 q 220 662 168 633 q 347 690 271 690 q 350 690 349 690 q 353 690 351 690 l 353 641 q 351 641 351 641 q 347 641 349 641 q 246 620 285 641 q 189 567 207 600 q 176 494 172 534 q 236 412 184 441 q 364 364 289 382 z "},"t":{"ha":563,"x_min":120,"x_max":443,"o":"m 224 305 l 224 305 l 274 305 l 274 178 l 274 25 l 274 0 l 224 0 l 224 187 l 224 305 m 274 681 l 274 681 l 443 681 l 443 631 l 323 631 l 274 631 l 224 631 l 183 631 l 120 631 l 120 681 l 224 681 l 224 866 l 274 880 l 274 681 z "},"u":{"ha":764,"x_min":120,"x_max":644,"o":"m 644 337 l 644 337 l 596 337 l 596 683 l 644 683 q 644 616 644 683 q 644 517 644 574 q 644 337 644 433 m 382 41 l 382 41 l 382 -8 q 188 77 256 -5 q 120 297 120 159 q 120 470 120 382 q 120 618 120 558 q 120 683 120 678 l 168 683 l 168 297 q 223 116 168 187 q 382 41 278 45 z "},"v":{"ha":807,"x_min":120,"x_max":687,"o":"m 301 340 l 301 340 l 248 340 l 120 681 l 172 681 l 301 340 m 687 681 l 687 681 l 430 0 l 378 0 l 634 681 l 687 681 z "},"w":{"ha":953,"x_min":120,"x_max":833,"o":"m 781 681 l 781 681 l 833 681 l 613 0 l 565 0 l 367 602 l 168 0 l 120 0 l 344 681 l 388 681 l 586 80 l 781 681 z "},"x":{"ha":795,"x_min":120,"x_max":675,"o":"m 428 351 l 428 351 l 675 0 l 615 0 l 397 308 l 181 0 l 120 0 l 367 351 l 134 681 l 195 681 l 397 394 l 428 351 z "},"y":{"ha":807,"x_min":120,"x_max":687,"o":"m 301 342 l 301 342 l 248 342 l 120 683 l 172 683 l 301 342 m 634 683 l 634 683 l 687 683 l 430 2 q 377 -128 400 -78 q 323 -213 354 -178 q 229 -271 275 -266 q 142 -266 182 -276 q 139 -265 140 -266 l 147 -217 q 278 -188 232 -237 q 377 2 325 -139 l 404 71 l 634 683 z "},"z":{"ha":766,"x_min":120,"x_max":646,"o":"m 633 631 l 633 631 l 183 49 l 646 49 l 646 0 l 120 0 l 120 49 l 609 681 l 633 681 l 633 631 z "},"{":{"ha":578,"x_min":120,"x_max":458,"o":"m 188 493 l 188 493 q 250 593 231 514 q 268 841 268 672 q 287 989 268 938 q 348 1059 306 1040 q 458 1078 389 1078 l 458 1127 q 356 1117 401 1127 q 281 1078 312 1108 q 235 992 250 1049 q 219 841 219 935 q 213 645 219 716 q 186 545 207 574 q 120 515 165 515 l 120 470 q 186 441 165 470 q 213 341 207 412 q 219 144 219 270 q 235 -7 219 49 q 281 -93 250 -64 q 356 -133 312 -123 q 458 -143 401 -143 l 458 -93 q 348 -74 389 -93 q 287 -4 306 -56 q 268 144 268 47 q 250 391 268 312 q 188 493 231 471 z "},"|":{"ha":290,"x_min":120,"x_max":169,"o":"m 120 1121 l 120 1121 l 169 1121 l 169 -138 l 120 -138 l 120 1121 z "},"}":{"ha":578,"x_min":120,"x_max":458,"o":"m 390 493 q 328 391 347 471 q 309 144 309 312 q 291 -4 309 47 q 230 -74 272 -56 q 120 -93 189 -93 l 120 -143 q 222 -133 177 -143 q 297 -93 266 -123 q 343 -7 327 -64 q 359 144 359 49 q 365 341 359 270 q 392 441 371 412 q 458 470 413 470 l 458 515 q 392 545 413 515 q 365 645 371 574 q 359 841 359 716 q 343 992 359 935 q 297 1078 327 1049 q 222 1117 266 1108 q 120 1127 177 1127 l 120 1078 q 230 1059 189 1078 q 291 989 272 1040 q 309 841 309 938 q 328 593 309 672 q 390 493 347 514 l 390 493 z "},"~":{"ha":1057,"x_min":0,"x_max":0,"o":""},"¡":{"ha":1057,"x_min":0,"x_max":0,"o":""},"¢":{"ha":1057,"x_min":0,"x_max":0,"o":""},"£":{"ha":1057,"x_min":0,"x_max":0,"o":""},"¤":{"ha":1057,"x_min":0,"x_max":0,"o":""},"¥":{"ha":1057,"x_min":0,"x_max":0,"o":""},"¦":{"ha":1057,"x_min":0,"x_max":0,"o":""},"§":{"ha":1057,"x_min":0,"x_max":0,"o":""},"¨":{"ha":1057,"x_min":0,"x_max":0,"o":""},"©":{"ha":1057,"x_min":0,"x_max":0,"o":""},"ª":{"ha":1057,"x_min":0,"x_max":0,"o":""},"«":{"ha":1057,"x_min":0,"x_max":0,"o":""},"¬":{"ha":1057,"x_min":0,"x_max":0,"o":""},"®":{"ha":1057,"x_min":0,"x_max":0,"o":""},"¯":{"ha":1057,"x_min":0,"x_max":0,"o":""},"°":{"ha":1057,"x_min":0,"x_max":0,"o":""},"±":{"ha":1057,"x_min":0,"x_max":0,"o":""},"²":{"ha":1057,"x_min":0,"x_max":0,"o":""},"³":{"ha":1057,"x_min":0,"x_max":0,"o":""},"´":{"ha":1057,"x_min":0,"x_max":0,"o":""},"µ":{"ha":1057,"x_min":0,"x_max":0,"o":""},"¶":{"ha":1057,"x_min":0,"x_max":0,"o":""},"·":{"ha":1057,"x_min":0,"x_max":0,"o":""},"∙":{"ha":1057,"x_min":0,"x_max":0,"o":""},"¸":{"ha":1057,"x_min":0,"x_max":0,"o":""},"¹":{"ha":1057,"x_min":0,"x_max":0,"o":""},"º":{"ha":1057,"x_min":0,"x_max":0,"o":""},"»":{"ha":1057,"x_min":0,"x_max":0,"o":""},"¼":{"ha":1057,"x_min":0,"x_max":0,"o":""},"½":{"ha":1057,"x_min":0,"x_max":0,"o":""},"¾":{"ha":1057,"x_min":0,"x_max":0,"o":""},"¿":{"ha":1057,"x_min":0,"x_max":0,"o":""},"À":{"ha":1057,"x_min":0,"x_max":0,"o":""},"Á":{"ha":1057,"x_min":0,"x_max":0,"o":""},"Â":{"ha":1057,"x_min":0,"x_max":0,"o":""},"Ã":{"ha":1057,"x_min":0,"x_max":0,"o":""},"Ä":{"ha":1049,"x_min":120,"x_max":928,"o":"m 928 0 l 928 0 l 547 989 l 502 989 l 120 0 l 172 0 l 524 911 l 876 0 l 928 0 m 463 1175 l 463 1175 q 450 1206 463 1193 q 419 1219 437 1219 q 387 1206 399 1219 q 375 1175 375 1193 q 387 1143 375 1156 q 419 1130 399 1130 q 450 1143 437 1130 q 463 1175 463 1156 m 674 1175 l 674 1175 q 661 1206 674 1193 q 629 1219 648 1219 q 598 1206 611 1219 q 585 1175 585 1193 q 598 1143 585 1156 q 629 1130 611 1130 q 661 1143 648 1130 q 674 1175 674 1156 z "},"Å":{"ha":1057,"x_min":0,"x_max":0,"o":""},"Æ":{"ha":1057,"x_min":0,"x_max":0,"o":""},"Ç":{"ha":1057,"x_min":0,"x_max":0,"o":""},"È":{"ha":1057,"x_min":0,"x_max":0,"o":""},"É":{"ha":1057,"x_min":0,"x_max":0,"o":""},"Ê":{"ha":1057,"x_min":0,"x_max":0,"o":""},"Ë":{"ha":889,"x_min":120,"x_max":769,"o":"m 769 939 l 769 939 l 769 989 l 120 989 l 120 939 l 769 939 m 769 470 l 769 470 l 769 519 l 120 519 l 120 470 l 769 470 m 769 0 l 769 0 l 769 49 l 120 49 l 120 0 l 769 0 m 384 1175 l 384 1175 q 371 1206 384 1193 q 339 1219 358 1219 q 307 1206 320 1219 q 295 1175 295 1193 q 307 1143 295 1156 q 339 1130 320 1130 q 371 1143 358 1130 q 384 1175 384 1156 m 594 1175 l 594 1175 q 581 1206 594 1193 q 550 1219 568 1219 q 518 1206 531 1219 q 506 1175 506 1193 q 518 1143 506 1156 q 550 1130 531 1130 q 581 1143 568 1130 q 594 1175 594 1156 z "},"Ì":{"ha":1057,"x_min":0,"x_max":0,"o":""},"Í":{"ha":1057,"x_min":0,"x_max":0,"o":""},"Î":{"ha":1057,"x_min":0,"x_max":0,"o":""},"Ï":{"ha":288,"x_min":-5,"x_max":294,"o":"m 120 989 l 120 989 l 120 0 l 168 0 l 168 989 l 120 989 m 83 1175 l 83 1175 q 70 1206 83 1193 q 38 1219 57 1219 q 7 1206 19 1219 q -5 1175 -5 1193 q 7 1143 -5 1156 q 38 1130 19 1130 q 70 1143 57 1130 q 83 1175 83 1156 m 294 1175 l 294 1175 q 281 1206 294 1193 q 249 1219 268 1219 q 218 1206 231 1219 q 205 1175 205 1193 q 218 1143 205 1156 q 249 1130 231 1130 q 281 1143 268 1130 q 294 1175 294 1156 z "},"Ð":{"ha":1057,"x_min":0,"x_max":0,"o":""},"Ñ":{"ha":1057,"x_min":0,"x_max":0,"o":""},"Ò":{"ha":1057,"x_min":0,"x_max":0,"o":""},"Ó":{"ha":1057,"x_min":0,"x_max":0,"o":""},"Ô":{"ha":1057,"x_min":0,"x_max":0,"o":""},"Õ":{"ha":1057,"x_min":0,"x_max":0,"o":""},"Ö":{"ha":1199,"x_min":120,"x_max":1079,"o":"m 600 996 l 600 996 q 847 927 739 994 q 1017 746 955 860 q 1079 492 1079 631 q 1017 239 1079 353 q 846 57 955 125 q 599 -11 738 -11 q 353 57 461 -11 q 183 239 245 125 q 120 492 120 353 q 120 493 120 492 q 120 493 120 493 l 174 493 q 174 493 174 493 q 174 492 174 492 q 228 264 174 367 q 379 99 283 161 q 599 37 475 37 q 820 99 724 37 q 971 264 917 161 q 1026 492 1026 367 q 971 721 1026 618 q 821 885 917 824 q 600 947 725 945 l 600 996 m 589 1175 l 589 1175 q 576 1206 589 1193 q 545 1219 563 1219 q 513 1206 526 1219 q 501 1175 501 1193 q 513 1143 501 1156 q 545 1130 526 1130 q 576 1143 563 1130 q 589 1175 589 1156 m 800 1175 l 800 1175 q 787 1206 800 1193 q 756 1219 774 1219 q 724 1206 737 1219 q 712 1175 712 1193 q 724 1143 712 1156 q 756 1130 737 1130 q 787 1143 774 1130 q 800 1175 800 1156 z "},"×":{"ha":1057,"x_min":0,"x_max":0,"o":""},"Ø":{"ha":1057,"x_min":0,"x_max":0,"o":""},"Ù":{"ha":1057,"x_min":0,"x_max":0,"o":""},"Ú":{"ha":1057,"x_min":0,"x_max":0,"o":""},"Û":{"ha":1057,"x_min":0,"x_max":0,"o":""},"Ü":{"ha":965,"x_min":120,"x_max":845,"o":"m 795 989 l 795 989 l 845 989 l 845 452 l 845 400 q 750 102 845 210 q 482 -10 656 -7 q 214 102 309 -7 q 120 400 120 210 l 120 615 l 120 708 l 120 839 l 120 893 l 120 989 l 169 989 l 169 893 l 169 839 l 169 708 l 169 615 l 169 400 q 252 135 169 230 q 482 38 335 40 q 713 135 630 40 q 795 400 795 230 l 795 452 l 795 989 m 421 1175 l 421 1175 q 408 1206 421 1193 q 377 1219 395 1219 q 345 1206 358 1219 q 333 1175 333 1193 q 345 1143 333 1156 q 377 1130 358 1130 q 408 1143 395 1130 q 421 1175 421 1156 m 632 1175 l 632 1175 q 619 1206 632 1193 q 587 1219 606 1219 q 556 1206 569 1219 q 543 1175 543 1193 q 556 1143 543 1156 q 587 1130 569 1130 q 619 1143 606 1130 q 632 1175 632 1156 z "},"Ý":{"ha":1057,"x_min":0,"x_max":0,"o":""},"Þ":{"ha":1057,"x_min":0,"x_max":0,"o":""},"ß":{"ha":922,"x_min":120,"x_max":801,"o":"m 775 399 l 775 399 q 801 274 801 347 q 760 121 801 182 q 652 30 720 60 q 504 0 584 0 l 325 0 l 325 49 l 504 49 q 624 73 568 49 q 715 146 681 97 q 749 274 749 196 q 716 403 749 352 q 626 478 682 454 q 504 503 570 503 l 325 503 l 325 551 l 480 551 q 589 573 541 551 q 666 639 638 596 q 694 746 694 682 q 635 891 694 841 q 480 941 577 941 l 461 941 l 406 941 l 388 941 q 232 891 291 941 q 174 752 176 843 l 174 -62 l 120 -62 l 120 752 q 154 874 121 822 q 250 959 189 929 q 388 989 310 989 l 406 989 l 461 989 l 480 989 q 618 959 558 989 q 713 874 679 929 q 748 746 748 820 q 708 613 748 668 q 601 532 668 559 q 704 485 659 519 q 775 399 749 452 z "},"à":{"ha":1057,"x_min":0,"x_max":0,"o":""},"á":{"ha":1057,"x_min":0,"x_max":0,"o":""},"â":{"ha":1057,"x_min":0,"x_max":0,"o":""},"ã":{"ha":1057,"x_min":0,"x_max":0,"o":""},"ä":{"ha":777,"x_min":120,"x_max":657,"o":"m 419 691 l 419 691 q 499 680 457 691 q 576 643 540 670 q 634 570 611 616 q 657 454 657 524 q 657 255 657 359 q 657 79 657 151 q 657 0 657 7 l 609 0 l 609 140 l 609 284 q 609 305 609 294 q 609 337 609 321 q 609 363 609 353 q 609 375 609 374 q 529 355 572 366 q 383 323 467 340 q 220 260 267 299 q 172 159 172 222 q 195 91 172 117 q 255 51 218 65 q 338 38 292 38 q 356 39 347 38 l 356 -9 q 331 -10 344 -10 q 259 -1 296 -10 q 190 26 222 7 q 140 77 159 45 q 120 159 120 110 q 155 266 120 225 q 247 331 191 307 q 371 371 304 355 q 426 382 399 377 q 515 402 474 391 q 582 430 557 413 q 607 473 607 446 q 588 558 607 519 q 528 620 570 596 q 419 643 487 643 q 312 622 356 643 q 241 567 268 602 q 203 488 214 532 l 155 499 q 180 564 163 530 q 228 627 198 598 q 305 673 258 655 q 419 691 352 691 m 352 867 l 352 867 q 339 898 352 885 q 307 911 326 911 q 276 898 288 911 q 264 867 264 885 q 276 835 264 848 q 307 821 288 821 q 339 835 326 821 q 352 867 352 848 m 563 867 l 563 867 q 550 898 563 885 q 518 911 537 911 q 487 898 500 911 q 474 867 474 885 q 487 835 474 848 q 518 821 500 821 q 550 835 537 821 q 563 867 563 848 z "},"å":{"ha":1057,"x_min":0,"x_max":0,"o":""},"æ":{"ha":1057,"x_min":0,"x_max":0,"o":""},"ç":{"ha":1057,"x_min":0,"x_max":0,"o":""},"è":{"ha":1057,"x_min":0,"x_max":0,"o":""},"é":{"ha":1057,"x_min":0,"x_max":0,"o":""},"ê":{"ha":1057,"x_min":0,"x_max":0,"o":""},"ë":{"ha":869,"x_min":120,"x_max":749,"o":"m 448 38 l 448 38 q 585 74 526 38 q 679 174 644 111 l 725 151 q 611 33 683 77 q 448 -10 540 -10 q 434 -10 441 -10 q 434 -10 434 -10 l 434 38 q 448 38 441 38 m 448 690 l 448 690 q 612 643 545 690 q 714 516 679 596 q 749 340 749 437 q 747 303 749 321 l 434 303 l 175 303 l 121 303 q 120 340 120 321 q 162 516 120 437 q 277 643 203 596 q 448 690 351 690 m 174 353 l 174 353 l 695 353 q 665 500 693 434 q 583 604 637 565 q 448 642 529 642 q 306 604 366 642 q 211 500 246 565 q 174 353 177 434 m 386 867 l 386 867 q 373 898 386 885 q 342 911 360 911 q 310 898 323 911 q 298 867 298 885 q 310 835 298 848 q 342 821 323 821 q 373 835 360 821 q 386 867 386 848 m 597 867 l 597 867 q 584 898 597 885 q 552 911 571 911 q 521 898 534 911 q 508 867 508 885 q 521 835 508 848 q 552 821 534 821 q 584 835 571 821 q 597 867 597 848 z "},"ì":{"ha":1057,"x_min":0,"x_max":0,"o":""},"í":{"ha":1057,"x_min":0,"x_max":0,"o":""},"î":{"ha":1057,"x_min":0,"x_max":0,"o":""},"ï":{"ha":290,"x_min":10,"x_max":309,"o":"m 120 681 l 120 681 l 120 0 l 169 0 l 169 681 l 120 681 m 98 867 l 98 867 q 85 898 98 885 q 54 911 72 911 q 22 898 34 911 q 10 867 10 885 q 22 835 10 848 q 54 821 34 821 q 85 835 72 821 q 98 867 98 848 m 309 867 l 309 867 q 296 898 309 885 q 264 911 283 911 q 233 898 246 911 q 220 867 220 885 q 233 835 220 848 q 264 821 246 821 q 296 835 283 821 q 309 867 309 848 z "},"ð":{"ha":1057,"x_min":0,"x_max":0,"o":""},"ñ":{"ha":1057,"x_min":0,"x_max":0,"o":""},"ò":{"ha":1057,"x_min":0,"x_max":0,"o":""},"ó":{"ha":1057,"x_min":0,"x_max":0,"o":""},"ô":{"ha":1057,"x_min":0,"x_max":0,"o":""},"õ":{"ha":1057,"x_min":0,"x_max":0,"o":""},"ö":{"ha":894,"x_min":120,"x_max":774,"o":"m 448 690 l 448 690 q 618 642 545 690 q 733 516 692 595 q 774 340 774 436 q 733 163 774 243 q 618 36 692 84 q 448 -11 545 -11 q 277 36 351 -11 q 162 163 203 84 q 120 340 120 243 l 174 340 q 208 187 174 256 q 303 78 242 119 q 448 37 364 37 q 593 78 531 37 q 687 187 654 119 q 721 340 721 256 q 687 491 721 423 q 593 601 654 560 q 448 642 531 642 q 447 642 447 642 q 447 642 447 642 l 447 690 q 447 690 447 690 q 448 690 447 690 m 386 867 l 386 867 q 373 898 386 885 q 342 911 360 911 q 310 898 323 911 q 298 867 298 885 q 310 835 298 848 q 342 821 323 821 q 373 835 360 821 q 386 867 386 848 m 597 867 l 597 867 q 584 898 597 885 q 552 911 571 911 q 521 898 534 911 q 508 867 508 885 q 521 835 508 848 q 552 821 534 821 q 584 835 571 821 q 597 867 597 848 z "},"÷":{"ha":1057,"x_min":0,"x_max":0,"o":""},"ø":{"ha":1057,"x_min":0,"x_max":0,"o":""},"ù":{"ha":1057,"x_min":0,"x_max":0,"o":""},"ú":{"ha":1057,"x_min":0,"x_max":0,"o":""},"û":{"ha":1057,"x_min":0,"x_max":0,"o":""},"ü":{"ha":764,"x_min":120,"x_max":644,"o":"m 644 337 l 644 337 l 596 337 l 596 683 l 644 683 q 644 616 644 683 q 644 517 644 574 q 644 337 644 433 m 382 41 l 382 41 l 382 -8 q 188 77 256 -5 q 120 297 120 159 q 120 470 120 382 q 120 618 120 558 q 120 683 120 678 l 168 683 l 168 297 q 223 116 168 187 q 382 41 278 45 m 321 867 l 321 867 q 308 898 321 885 q 277 911 295 911 q 245 898 257 911 q 233 867 233 885 q 245 835 233 848 q 277 821 257 821 q 308 835 295 821 q 321 867 321 848 m 532 867 l 532 867 q 519 898 532 885 q 487 911 506 911 q 456 898 469 911 q 443 867 443 885 q 456 835 443 848 q 487 821 469 821 q 519 835 506 821 q 532 867 532 848 z "},"ý":{"ha":1057,"x_min":0,"x_max":0,"o":""},"þ":{"ha":1057,"x_min":0,"x_max":0,"o":""},"ÿ":{"ha":807,"x_min":120,"x_max":687,"o":"m 301 342 l 301 342 l 248 342 l 120 683 l 172 683 l 301 342 m 634 683 l 634 683 l 687 683 l 430 2 q 377 -128 400 -78 q 323 -213 354 -178 q 229 -271 275 -266 q 142 -266 182 -276 q 139 -265 140 -266 l 147 -217 q 278 -188 232 -237 q 377 2 325 -139 l 404 71 l 634 683 m 342 867 l 342 867 q 329 898 342 885 q 298 911 316 911 q 266 898 279 911 q 254 867 254 885 q 266 835 254 848 q 298 821 279 821 q 329 835 316 821 q 342 867 342 848 m 553 867 l 553 867 q 540 898 553 885 q 508 911 527 911 q 477 898 490 911 q 465 867 465 885 q 477 835 465 848 q 508 821 490 821 q 540 835 527 821 q 553 867 553 848 z "},"ı":{"ha":290,"x_min":120,"x_max":169,"o":"m 120 681 l 120 681 l 120 0 l 169 0 l 169 681 l 120 681 z "},"̀":{"ha":1057,"x_min":0,"x_max":0,"o":""},"́":{"ha":1057,"x_min":0,"x_max":0,"o":""},"̂":{"ha":1057,"x_min":0,"x_max":0,"o":""},"̃":{"ha":1057,"x_min":0,"x_max":0,"o":""},"̄":{"ha":1057,"x_min":0,"x_max":0,"o":""},"̇":{"ha":1057,"x_min":0,"x_max":0,"o":""},"̈":{"ha":539,"x_min":120,"x_max":419,"o":"m 209 867 l 209 867 q 196 898 209 885 q 164 911 183 911 q 132 898 145 911 q 120 867 120 885 q 132 835 120 848 q 164 821 145 821 q 196 835 183 821 q 209 867 209 848 m 419 867 l 419 867 q 406 898 419 885 q 375 911 393 911 q 343 898 356 911 q 331 867 331 885 q 343 835 331 848 q 375 821 356 821 q 406 835 393 821 q 419 867 419 848 z "},"̊":{"ha":1057,"x_min":0,"x_max":0,"o":""},"̌":{"ha":1057,"x_min":0,"x_max":0,"o":""},"̧":{"ha":1057,"x_min":0,"x_max":0,"o":""},"–":{"ha":843,"x_min":120,"x_max":723,"o":"m 723 518 l 723 518 l 120 518 l 120 469 l 723 469 l 723 518 z "},"—":{"ha":1036,"x_min":120,"x_max":916,"o":"m 916 518 l 916 518 l 120 518 l 120 469 l 916 469 l 916 518 z "},"‘":{"ha":367,"x_min":120,"x_max":247,"o":"m 247 983 l 247 983 l 185 983 l 120 746 l 148 746 l 247 983 z "},"’":{"ha":367,"x_min":120,"x_max":247,"o":"m 247 983 l 247 983 l 185 983 l 120 746 l 148 746 l 247 983 z "},"‚":{"ha":1057,"x_min":0,"x_max":0,"o":""},"“":{"ha":527,"x_min":120,"x_max":407,"o":"m 407 983 l 407 983 l 345 983 l 280 746 l 308 746 l 407 983 m 247 983 l 247 983 l 185 983 l 120 746 l 148 746 l 247 983 m 247 983 l 247 983 l 185 983 l 120 746 l 148 746 l 247 983 m 247 983 l 247 983 l 185 983 l 120 746 l 148 746 l 247 983 z "},"”":{"ha":527,"x_min":120,"x_max":407,"o":"m 407 983 l 407 983 l 345 983 l 280 746 l 308 746 l 407 983 m 247 983 l 247 983 l 185 983 l 120 746 l 148 746 l 247 983 m 247 983 l 247 983 l 185 983 l 120 746 l 148 746 l 247 983 m 247 983 l 247 983 l 185 983 l 120 746 l 148 746 l 247 983 z "},"„":{"ha":1057,"x_min":0,"x_max":0,"o":""},"†":{"ha":1057,"x_min":0,"x_max":0,"o":""},"‡":{"ha":1057,"x_min":0,"x_max":0,"o":""},"•":{"ha":1057,"x_min":0,"x_max":0,"o":""},"…":{"ha":1057,"x_min":0,"x_max":0,"o":""},"‹":{"ha":1057,"x_min":0,"x_max":0,"o":""},"›":{"ha":1057,"x_min":0,"x_max":0,"o":""},"⁄":{"ha":1057,"x_min":0,"x_max":0,"o":""},"∕":{"ha":1057,"x_min":0,"x_max":0,"o":""},"₣":{"ha":1057,"x_min":0,"x_max":0,"o":""},"₤":{"ha":1057,"x_min":0,"x_max":0,"o":""},"₧":{"ha":1057,"x_min":0,"x_max":0,"o":""},"€":{"ha":1057,"x_min":0,"x_max":0,"o":""},"№":{"ha":1057,"x_min":0,"x_max":0,"o":""},"™":{"ha":1057,"x_min":0,"x_max":0,"o":""},"∂":{"ha":1057,"x_min":0,"x_max":0,"o":""},"∆":{"ha":1057,"x_min":0,"x_max":0,"o":""},"∏":{"ha":1057,"x_min":0,"x_max":0,"o":""},"∑":{"ha":1057,"x_min":0,"x_max":0,"o":""},"−":{"ha":706,"x_min":120,"x_max":586,"o":"m 586 518 l 586 518 l 120 518 l 120 469 l 586 469 l 586 518 z "},"√":{"ha":1057,"x_min":0,"x_max":0,"o":""},"∞":{"ha":1057,"x_min":0,"x_max":0,"o":""},"∫":{"ha":1057,"x_min":0,"x_max":0,"o":""},"≈":{"ha":1057,"x_min":0,"x_max":0,"o":""},"≤":{"ha":1057,"x_min":0,"x_max":0,"o":""},"≥":{"ha":1057,"x_min":0,"x_max":0,"o":""},"ﬁ":{"ha":810,"x_min":120,"x_max":690,"o":"m 372 950 l 372 950 q 428 939 401 950 q 473 913 454 928 l 500 955 q 441 985 474 972 q 372 999 407 999 q 283 975 316 999 q 236 907 250 951 q 222 802 222 863 l 222 682 l 120 682 l 120 633 l 189 633 l 222 633 l 271 633 l 322 633 l 651 633 l 651 682 l 271 682 l 271 812 q 281 882 271 850 q 313 931 291 913 q 372 950 335 950 m 222 305 l 222 305 l 222 0 l 271 0 l 271 305 l 222 305 m 679 825 l 679 825 q 690 852 690 836 q 679 880 690 869 q 651 892 667 892 q 623 880 634 892 q 612 852 612 869 q 623 825 612 836 q 651 813 634 813 q 679 825 667 813 m 676 682 l 676 682 l 627 682 l 627 0 l 676 0 l 676 682 z "},"ﬂ":{"ha":1057,"x_min":0,"x_max":0,"o":""},"ﬀ":{"ha":1040,"x_min":120,"x_max":920,"o":"m 372 950 l 372 950 q 428 939 401 950 q 473 913 454 928 l 500 955 q 441 985 474 972 q 372 999 407 999 q 283 975 316 999 q 236 907 250 951 q 222 802 222 863 l 222 682 l 120 682 l 120 633 l 189 633 l 222 633 l 271 633 l 322 633 l 571 633 l 571 682 l 271 682 l 271 812 q 281 882 271 850 q 313 931 291 913 q 372 950 335 950 m 222 305 l 222 305 l 222 0 l 271 0 l 271 305 l 222 305 m 792 950 l 792 950 q 847 939 821 950 q 893 913 874 928 l 920 955 q 861 985 894 972 q 792 999 827 999 q 703 975 736 999 q 657 907 671 951 q 642 802 642 863 l 642 682 l 540 682 l 540 633 l 609 633 l 642 633 l 692 633 l 742 633 l 857 633 l 857 682 l 692 682 l 692 812 q 701 882 692 850 q 733 931 711 913 q 792 950 755 950 m 642 305 l 642 305 l 642 0 l 692 0 l 692 305 l 642 305 z "},"ꝏ":{"ha":1489,"x_min":120,"x_max":1369,"o":"m 1328 517 l 1328 517 q 1369 342 1369 438 q 1328 167 1369 246 q 1214 40 1287 87 q 1044 -7 1141 -7 q 874 40 948 -7 q 760 167 801 87 q 718 342 718 246 l 718 342 q 684 493 718 425 q 589 602 651 561 q 445 643 528 643 q 301 602 362 643 q 207 493 239 561 q 174 342 174 425 q 207 191 174 259 q 301 82 239 122 q 445 41 362 41 l 445 41 l 445 -7 l 445 -7 q 275 40 349 -7 q 161 166 202 87 q 120 342 120 245 q 161 517 120 438 q 275 644 202 596 q 445 690 349 690 q 615 644 541 690 q 730 517 688 596 q 771 342 771 438 l 771 342 q 805 191 771 259 q 900 82 839 122 q 1044 41 961 41 q 1189 82 1127 41 q 1283 191 1250 122 q 1315 342 1315 259 q 1283 493 1315 425 q 1189 602 1250 561 q 1044 643 1127 643 l 1044 643 l 1044 690 l 1044 690 q 1214 644 1141 690 q 1328 517 1287 596 z "}}}
